#!OML:ASF H:\ManfredETheater\Project 1\Capture day 1\Session 1\subject.ASF
:FULLY-SPECIFIED
:DEGREES
240
root -8.5148 17.8111 -24.9448 -168.704 -34.0041 -181.406
lowerback 8.66634 -0.568266 -4.85872
upperback -2.53595 -1.28854 0.566246
thorax -7.43727 -0.393918 3.52691
lowerneck -15.8382 -4.47531 -5.34914
upperneck 9.52648 -5.72959 6.29383
head 5.80098 -2.52881 2.30402
rclavicle -2.43511e-014 1.19271e-014
rhumerus -40.8689 4.60008 -93.2494
rradius 60.2994
rwrist -2.74959
rhand -27.6857 2.18955
rfingers 7.12502
rthumb -1.08233 -27.7875
lclavicle -2.43511e-014 1.19271e-014
lhumerus -44.6601 2.16345 84.4028
lradius 38.6002
lwrist -15.0597
lhand -23.3871 -6.53692
lfingers 7.12502
lthumb 3.0693 23.4207
rfemur -16.7766 1.78557 18.7012
rtibia 36.1123
rfoot -23.8371 -10.9059
rtoes -23.1918
lfemur -23.3972 -2.74982 -21.5432
ltibia 43.9963
lfoot -25.3068 -3.62409
ltoes 10.996
241
root -8.54095 17.8131 -25.0002 -168.378 -34.0046 -181.418
lowerback 8.55443 -0.59247 -4.72606
upperback -2.55307 -1.30202 0.544222
thorax -7.39216 -0.408439 3.42817
lowerneck -15.7296 -4.47749 -5.37332
upperneck 9.43769 -5.73441 6.33844
head 5.75755 -2.53178 2.32357
rclavicle 5.0131e-015 -1.39149e-015
rhumerus -41.1324 4.78555 -93.3738
rradius 60.2442
rwrist -2.82325
rhand -27.6156 2.13543
rfingers 7.12502
rthumb -1.01463 -27.8419
lclavicle 5.0131e-015 -1.39149e-015
lhumerus -44.3857 1.87321 84.8952
lradius 39.0162
lwrist -14.7022
lhand -23.3932 -6.714
lfingers 7.12502
lthumb 3.06336 23.2437
rfemur -16.7487 1.64635 18.7177
rtibia 35.8414
rfoot -23.97 -10.8628
rtoes -23.5748
lfemur -23.4893 -3.24653 -21.4957
ltibia 43.9562
lfoot -25.389 -3.13858
ltoes 10.472
242
root -8.56854 17.813 -25.0557 -168.057 -33.9912 -181.43
lowerback 8.43862 -0.608469 -4.57789
upperback -2.57121 -1.30288 0.522697
thorax -7.34738 -0.417407 3.31938
lowerneck -15.6168 -4.48268 -5.41566
upperneck 9.35112 -5.73937 6.38232
head 5.71463 -2.53552 2.34584
rclavicle -2.50966e-015 -1.3418e-014
rhumerus -41.4011 4.96715 -93.4772
rradius 60.1936
rwrist -2.86104
rhand -27.54 2.09905
rfingers 7.12502
rthumb -0.94167 -27.8786
lclavicle -2.50966e-015 -1.3418e-014
lhumerus -44.1223 1.58127 85.3926
lradius 39.4873
lwrist -14.383
lhand -23.3912 -6.94591
lfingers 7.12502
lthumb 3.0653 23.0118
rfemur -16.7113 1.51366 18.7217
rtibia 35.5699
rfoot -24.1288 -10.8009
rtoes -23.9561
lfemur -23.5653 -3.75564 -21.4595
ltibia 43.9147
lfoot -25.5046 -2.58626
ltoes 9.88524
243
root -8.59738 17.8106 -25.1113 -167.736 -33.9566 -181.447
lowerback 8.31051 -0.615832 -4.42717
upperback -2.58427 -1.29133 0.503469
thorax -7.29116 -0.420691 3.20952
lowerneck -15.5141 -4.49015 -5.48069
upperneck 9.26883 -5.74259 6.42933
head 5.67541 -2.53872 2.37277
rclavicle 4.87954e-014 -1.3418e-015
rhumerus -41.6622 5.1552 -93.5584
rradius 60.1489
rwrist -2.87364
rhand -27.4667 2.07975
rfingers 7.12502
rthumb -0.870846 -27.8982
lclavicle 4.87954e-014 -1.3418e-015
lhumerus -43.861 1.28863 85.9023
lradius 40.0269
lwrist -14.0684
lhand -23.375 -7.13444
lfingers 7.12502
lthumb 3.08096 22.823
rfemur -16.6751 1.39843 18.7072
rtibia 35.3084
rfoot -24.3109 -10.7243
rtoes -24.3591
lfemur -23.6274 -4.25667 -21.4412
ltibia 43.8695
lfoot -25.6581 -1.98296
ltoes 9.28886
244
root -8.62722 17.8056 -25.1674 -167.439 -33.9084 -181.457
lowerback 8.19296 -0.615596 -4.26942
upperback -2.59353 -1.26918 0.48972
thorax -7.23784 -0.418812 3.10031
lowerneck -15.4107 -4.49822 -5.56409
upperneck 9.19093 -5.74279 6.47563
head 5.63779 -2.54103 2.40272
rclavicle -4.35587e-014 -8.44835e-015
rhumerus -41.929 5.34524 -93.6189
rradius 60.1168
rwrist -2.86632
rhand -27.398 2.07535
rfingers 7.12502
rthumb -0.804491 -27.9029
lclavicle -4.35587e-014 -8.44835e-015
lhumerus -43.6238 0.984706 86.4242
lradius 40.6449
lwrist -13.7469
lhand -23.3489 -7.28784
lfingers 7.12502
lthumb 3.1062 22.6693
rfemur -16.6201 1.30703 18.6893
rtibia 35.0657
rfoot -24.5261 -10.6351
rtoes -24.7535
lfemur -23.654 -4.7302 -21.4286
ltibia 43.8189
lfoot -25.8577 -1.36021
ltoes 8.73967
245
root -8.65795 17.7977 -25.2242 -167.171 -33.8467 -181.454
lowerback 8.08841 -0.608724 -4.10315
upperback -2.60238 -1.23767 0.482628
thorax -7.19224 -0.412246 2.99245
lowerneck -15.2929 -4.50528 -5.65162
upperneck 9.10893 -5.7393 6.50823
head 5.59595 -2.54287 2.4296
rclavicle -5.74612e-015 7.45443e-016
rhumerus -42.2074 5.54009 -93.6627
rradius 60.0983
rwrist -2.8512
rhand -27.3403 2.08388
rfingers 7.12502
rthumb -0.748803 -27.8945
lclavicle -5.74612e-015 7.45443e-016
lhumerus -43.4192 0.663097 86.9564
lradius 41.3384
lwrist -13.3995
lhand -23.3236 -7.39761
lfingers 7.12502
lthumb 3.13059 22.5592
rfemur -16.5516 1.23232 18.675
rtibia 34.8512
rfoot -24.7728 -10.5322
rtoes -25.1483
lfemur -23.6456 -5.16164 -21.4161
ltibia 43.7621
lfoot -26.1107 -0.740625
ltoes 8.29604
246
root -8.6896 17.7871 -25.2811 -166.935 -33.7585 -181.423
lowerback 7.98553 -0.592465 -3.92186
upperback -2.60214 -1.19119 0.488035
thorax -7.1389 -0.398863 2.88729
lowerneck -15.1791 -4.50853 -5.7344
upperneck 9.01979 -5.72783 6.51694
head 5.55112 -2.54219 2.44893
rclavicle 3.87506e-014 2.68856e-014
rhumerus -42.4776 5.7481 -93.6852
rradius 60.0969
rwrist -2.8396
rhand -27.287 2.09131
rfingers 7.12502
rthumb -0.697308 -27.8873
lclavicle 3.87506e-014 2.68856e-014
lhumerus -43.2371 0.328161 87.4997
lradius 42.1109
lwrist -13.0122
lhand -23.3172 -7.49556
lfingers 7.12502
lthumb 3.13677 22.4611
rfemur -16.4815 1.17035 18.6774
rtibia 34.672
rfoot -25.047 -10.4062
rtoes -25.5478
lfemur -23.6073 -5.53722 -21.3918
ltibia 43.6996
lfoot -26.4245 -0.12896
ltoes 7.98013
247
root -8.72232 17.7735 -25.3382 -166.732 -33.643 -181.355
lowerback 7.88606 -0.567252 -3.71975
upperback -2.59633 -1.12995 0.506642
thorax -7.08249 -0.378814 2.78245
lowerneck -15.069 -4.50802 -5.81021
upperneck 8.92612 -5.70912 6.50144
head 5.50403 -2.53926 2.46016
rclavicle -8.52089e-014 -6.79129e-015
rhumerus -42.7426 5.97335 -93.6875
rradius 60.1141
rwrist -2.84176
rhand -27.2365 2.09573
rfingers 7.12502
rthumb -0.648482 -27.883
lclavicle -8.52089e-014 -6.79129e-015
lhumerus -43.0827 -0.0270683 88.057
lradius 42.968
lwrist -12.5665
lhand -23.3187 -7.50644
lfingers 7.12502
lthumb 3.13533 22.4503
rfemur -16.4184 1.10467 18.7019
rtibia 34.5358
rfoot -25.3495 -10.2437
rtoes -25.9392
lfemur -23.5429 -5.85149 -21.3512
ltibia 43.633
lfoot -26.8037 0.468202
ltoes 7.7967
248
root -8.75618 17.757 -25.3953 -166.558 -33.4999 -181.252
lowerback 7.79312 -0.533271 -3.49431
upperback -2.58871 -1.05437 0.537208
thorax -7.02874 -0.352272 2.67539
lowerneck -14.9616 -4.50118 -5.86521
upperneck 8.82567 -5.68121 6.45162
head 5.453 -2.53335 2.45809
rclavicle -1.59121e-014 -3.6154e-015
rhumerus -43.0054 6.21061 -93.6693
rradius 60.1566
rwrist -2.87008
rhand -27.1746 2.084
rfingers 7.12502
rthumb -0.588744 -27.8949
lclavicle -1.59121e-014 -3.6154e-015
lhumerus -42.9654 -0.399716 88.6232
lradius 43.9178
lwrist -12.0669
lhand -23.3306 -7.47547
lfingers 7.12502
lthumb 3.12385 22.4814
rfemur -16.3722 1.02203 18.7501
rtibia 34.4509
rfoot -25.6794 -10.0369
rtoes -26.3159
lfemur -23.4581 -6.10608 -21.2934
ltibia 43.564
lfoot -27.2493 1.04981
ltoes 7.73265
249
root -8.79124 17.7377 -25.4524 -166.408 -33.3304 -181.117
lowerback 7.70857 -0.491393 -3.25043
upperback -2.58167 -0.966442 0.578853
thorax -6.98091 -0.319944 2.5683
lowerneck -14.859 -4.48696 -5.89714
upperneck 8.72335 -5.64359 6.36865
head 5.39988 -2.52395 2.44273
rclavicle 1.86236e-014 4.29126e-014
rhumerus -43.2661 6.46254 -93.6298
rradius 60.2235
rwrist -2.93003
rhand -27.0996 2.05263
rfingers 7.12502
rthumb -0.51633 -27.9265
lclavicle 1.86236e-014 4.29126e-014
lhumerus -42.8863 -0.783967 89.1952
lradius 44.9552
lwrist -11.5116
lhand -23.3461 -7.40437
lfingers 7.12502
lthumb 3.10882 22.5527
rfemur -16.3494 0.917147 18.8186
rtibia 34.4264
rfoot -26.0358 -9.79141
rtoes -26.6845
lfemur -23.3561 -6.30389 -21.2226
ltibia 43.495
lfoot -27.7546 1.61749
ltoes 7.76481
250
root -8.82761 17.7157 -25.5093 -166.274 -33.1385 -180.962
lowerback 7.63258 -0.445278 -2.99747
upperback -2.57519 -0.872319 0.628316
thorax -6.9385 -0.284568 2.46381
lowerneck -14.7691 -4.46071 -5.90782
upperneck 8.62489 -5.59098 6.26315
head 5.3479 -2.50768 2.41811
rclavicle -6.32011e-014 1.63997e-015
rhumerus -43.5223 6.73052 -93.5706
rradius 60.3167
rwrist -3.02072
rhand -27.0133 2.00128
rfingers 7.12502
rthumb -0.432908 -27.978
lclavicle -6.32011e-014 1.63997e-015
lhumerus -42.8468 -1.18025 89.7708
lradius 46.0828
lwrist -10.8973
lhand -23.3787 -7.2928
lfingers 7.12502
lthumb 3.0774 22.6647
rfemur -16.3569 0.777055 18.8959
rtibia 34.4724
rfoot -26.4187 -9.50431
rtoes -27.0593
lfemur -23.2403 -6.45183 -21.1502
ltibia 43.4291
lfoot -28.3118 2.17227
ltoes 7.88442
251
root -8.86506 17.6913 -25.566 -166.148 -32.9286 -180.802
lowerback 7.5755 -0.396314 -2.74612
upperback -2.57324 -0.77552 0.682451
thorax -6.91135 -0.24731 2.3653
lowerneck -14.6891 -4.42524 -5.89526
upperneck 8.52986 -5.52793 6.13626
head 5.29674 -2.48666 2.38387
rclavicle 3.43276e-014 2.43511e-015
rhumerus -43.7757 7.01121 -93.4914
rradius 60.4321
rwrist -3.13159
rhand -26.9259 1.93701
rfingers 7.12502
rthumb -0.348501 -28.0424
lclavicle 3.43276e-014 2.43511e-015
lhumerus -42.8428 -1.57489 90.3455
lradius 47.2881
lwrist -10.2463
lhand -23.419 -7.15325
lfingers 7.12502
lthumb 3.03846 22.8049
rfemur -16.4027 0.606231 18.972
rtibia 34.6007
rfoot -26.8239 -9.18713
rtoes -27.4479
lfemur -23.1154 -6.55821 -21.086
ltibia 43.3704
lfoot -28.9045 2.7187
ltoes 8.05002
